<svg width="41" height="44" viewBox="0 0 41 44" fill="none" xmlns="http://www.w3.org/2000/svg">
<mask id="path-1-inside-1_0_1" fill="white">
<path d="M27 14C27 17.239 25.917 20.3777 23.9356 22.8815C21.9542 25.3853 19.197 27.0991 16.1337 27.731C13.0704 28.3629 9.89065 27.8737 7.13614 26.3469C4.38164 24.8201 2.22286 22.35 1.02763 19.3576C-0.167607 16.3651 -0.32534 13.0355 0.581305 9.93602C1.48795 6.83651 3.40287 4.1589 5.9998 2.35943C8.59673 0.559949 11.715 -0.250061 14.8232 0.0674137C17.9315 0.384888 20.8374 1.8102 23.0459 4.1005L18.8386 8.46364C17.6035 7.18278 15.9783 6.38566 14.24 6.20811C12.5017 6.03056 10.7578 6.48357 9.30547 7.48994C7.85312 8.4963 6.78219 9.99377 6.27514 11.7272C5.76809 13.4606 5.8563 15.3227 6.52475 16.9963C7.19319 18.6698 8.4005 20.0512 9.94097 20.9051C11.4814 21.759 13.2598 22.0325 14.9729 21.6791C16.6861 21.3258 18.2281 20.3673 19.3362 18.967C20.4443 17.5668 21.05 15.8114 21.05 14H27Z"/>
</mask>
<path d="M27 14C27 17.239 25.917 20.3777 23.9356 22.8815C21.9542 25.3853 19.197 27.0991 16.1337 27.731C13.0704 28.3629 9.89065 27.8737 7.13614 26.3469C4.38164 24.8201 2.22286 22.35 1.02763 19.3576C-0.167607 16.3651 -0.32534 13.0355 0.581305 9.93602C1.48795 6.83651 3.40287 4.1589 5.9998 2.35943C8.59673 0.559949 11.715 -0.250061 14.8232 0.0674137C17.9315 0.384888 20.8374 1.8102 23.0459 4.1005L18.8386 8.46364C17.6035 7.18278 15.9783 6.38566 14.24 6.20811C12.5017 6.03056 10.7578 6.48357 9.30547 7.48994C7.85312 8.4963 6.78219 9.99377 6.27514 11.7272C5.76809 13.4606 5.8563 15.3227 6.52475 16.9963C7.19319 18.6698 8.4005 20.0512 9.94097 20.9051C11.4814 21.759 13.2598 22.0325 14.9729 21.6791C16.6861 21.3258 18.2281 20.3673 19.3362 18.967C20.4443 17.5668 21.05 15.8114 21.05 14H27Z" fill="#D9D9D9" stroke="black" stroke-width="2" mask="url(#path-1-inside-1_0_1)"/>
<rect x="4.69113" y="22.3154" width="27" height="27" rx="4.5" transform="rotate(-32.7954 4.69113 22.3154)" fill="#3A3A3A" stroke="black"/>
</svg>
