<svg width="50" height="49" viewBox="0 0 50 49" fill="none" xmlns="http://www.w3.org/2000/svg">
<g filter="url(#filter0_di_0_1)">
<path d="M2.5 23C2.5 21.8954 3.39543 21 4.5 21H7.5L10 22L12.5 21H37.0529C38.1197 21 38.4451 22.4471 37.481 22.9037L32 25.5V25.5C29.3679 27.145 27.145 29.3679 25.5 32V32H12L10 31L7.5 32H4.5C3.39543 32 2.5 31.1046 2.5 30V23Z" fill="url(#paint0_radial_0_1)"/>
</g>
<g filter="url(#filter1_ii_0_1)">
<path d="M12 32H25.5L24.9429 33.4486C23.7693 36.4998 24.5704 39.9582 26.966 42.1827L30 45H6.5L9.99363 42.1614C12.6812 39.9777 13.6588 36.3128 12.4156 33.0807L12 32Z" fill="url(#paint1_linear_0_1)"/>
</g>
<path d="M29.3608 44.9004C30.4642 44.9019 31.3579 45.7969 31.3579 46.9004V48.6419L4.85551 48.604V46.8682C4.85551 45.7625 5.75268 44.8666 6.85837 44.8682L29.3608 44.9004Z" fill="#BAB9D9"/>
<path d="M15 20C15 19.4477 15.4477 19 16 19H31C31.5523 19 32 19.4477 32 20V21H15V20Z" fill="#FF8F0C"/>
<rect x="9" y="7" width="36" height="4" fill="#5F3212"/>
<g filter="url(#filter2_i_0_1)">
<path d="M11.3333 1.2L12.6667 0H19.3333L20.6667 1.2L22 2.4V15.6L20.6667 16.8L19.3333 18H12.6667L11.3333 16.8L10 15.6V2.4L11.3333 1.2Z" fill="#D9D9D9"/>
</g>
<path d="M12.4286 3H13.2222H18.7778H19.5714L21 4.73333V14.2667L19.5714 16H12.4286L11 14.2667V4.73333L12.4286 3Z" fill="url(#paint2_linear_0_1)" fill-opacity="0.54"/>
<path d="M27 7.2L22 6V12L27 10.8V7.2Z" fill="#3F3A3A"/>
<g filter="url(#filter3_d_0_1)">
<path d="M29.0565 7.31247L30.25 7.31247L27.75 10.875L26.5 10.875L29.0565 7.31247Z" fill="#D9D9D9"/>
<path d="M29.0565 7.31247L30.25 7.31247L27.75 10.875L26.5 10.875L29.0565 7.31247Z" fill="#D9D9D9"/>
</g>
<g filter="url(#filter4_d_0_1)">
<path d="M32.8065 7.31247L34 7.31247L31.5 10.875L30.25 10.875L32.8065 7.31247Z" fill="#D9D9D9"/>
<path d="M32.8065 7.31247L34 7.31247L31.5 10.875L30.25 10.875L32.8065 7.31247Z" fill="#D9D9D9"/>
</g>
<g filter="url(#filter5_d_0_1)">
<path d="M36.5565 7.31247L37.75 7.31247L35.25 10.875L34 10.875L36.5565 7.31247Z" fill="#D9D9D9"/>
<path d="M36.5565 7.31247L37.75 7.31247L35.25 10.875L34 10.875L36.5565 7.31247Z" fill="#D9D9D9"/>
</g>
<g filter="url(#filter6_d_0_1)">
<path d="M40.3065 7.31247L41.5 7.31247L39 10.875L37.75 10.875L40.3065 7.31247Z" fill="#D9D9D9"/>
<path d="M40.3065 7.31247L41.5 7.31247L39 10.875L37.75 10.875L40.3065 7.31247Z" fill="#D9D9D9"/>
</g>
<g filter="url(#filter7_d_0_1)">
<path d="M44.0565 7.31247L45.25 7.31247L42.75 10.875L41.5 10.875L44.0565 7.31247Z" fill="#D9D9D9"/>
<path d="M44.0565 7.31247L45.25 7.31247L42.75 10.875L41.5 10.875L44.0565 7.31247Z" fill="#D9D9D9"/>
</g>
<path d="M44 7.2L47.7666 6.29601C48.3955 6.14509 49 6.62171 49 7.2684V10.7316C49 11.3783 48.3955 11.8549 47.7666 11.704L44 10.8V7.2Z" fill="#3F3A3A"/>
<defs>
<filter id="filter0_di_0_1" x="-1.5" y="21" width="43.5543" height="19" filterUnits="userSpaceOnUse" color-interpolation-filters="sRGB">
<feFlood flood-opacity="0" result="BackgroundImageFix"/>
<feColorMatrix in="SourceAlpha" type="matrix" values="0 0 0 0 0 0 0 0 0 0 0 0 0 0 0 0 0 0 127 0" result="hardAlpha"/>
<feOffset dy="4"/>
<feGaussianBlur stdDeviation="2"/>
<feComposite in2="hardAlpha" operator="out"/>
<feColorMatrix type="matrix" values="0 0 0 0 0 0 0 0 0 0 0 0 0 0 0 0 0 0 0.79 0"/>
<feBlend mode="normal" in2="BackgroundImageFix" result="effect1_dropShadow_0_1"/>
<feBlend mode="normal" in="SourceGraphic" in2="effect1_dropShadow_0_1" result="shape"/>
<feColorMatrix in="SourceAlpha" type="matrix" values="0 0 0 0 0 0 0 0 0 0 0 0 0 0 0 0 0 0 127 0" result="hardAlpha"/>
<feOffset/>
<feGaussianBlur stdDeviation="1"/>
<feComposite in2="hardAlpha" operator="arithmetic" k2="-1" k3="1"/>
<feColorMatrix type="matrix" values="0 0 0 0 0 0 0 0 0 0 0 0 0 0 0 0 0 0 0.25 0"/>
<feBlend mode="normal" in2="shape" result="effect2_innerShadow_0_1"/>
</filter>
<filter id="filter1_ii_0_1" x="6.5" y="32" width="23.5" height="17" filterUnits="userSpaceOnUse" color-interpolation-filters="sRGB">
<feFlood flood-opacity="0" result="BackgroundImageFix"/>
<feBlend mode="normal" in="SourceGraphic" in2="BackgroundImageFix" result="shape"/>
<feColorMatrix in="SourceAlpha" type="matrix" values="0 0 0 0 0 0 0 0 0 0 0 0 0 0 0 0 0 0 127 0" result="hardAlpha"/>
<feOffset dy="4"/>
<feGaussianBlur stdDeviation="2"/>
<feComposite in2="hardAlpha" operator="arithmetic" k2="-1" k3="1"/>
<feColorMatrix type="matrix" values="0 0 0 0 0 0 0 0 0 0 0 0 0 0 0 0 0 0 0.25 0"/>
<feBlend mode="normal" in2="shape" result="effect1_innerShadow_0_1"/>
<feColorMatrix in="SourceAlpha" type="matrix" values="0 0 0 0 0 0 0 0 0 0 0 0 0 0 0 0 0 0 127 0" result="hardAlpha"/>
<feOffset dy="4"/>
<feGaussianBlur stdDeviation="2"/>
<feComposite in2="hardAlpha" operator="arithmetic" k2="-1" k3="1"/>
<feColorMatrix type="matrix" values="0 0 0 0 0 0 0 0 0 0 0 0 0 0 0 0 0 0 0.25 0"/>
<feBlend mode="normal" in2="effect1_innerShadow_0_1" result="effect2_innerShadow_0_1"/>
</filter>
<filter id="filter2_i_0_1" x="10" y="0" width="12" height="18" filterUnits="userSpaceOnUse" color-interpolation-filters="sRGB">
<feFlood flood-opacity="0" result="BackgroundImageFix"/>
<feBlend mode="normal" in="SourceGraphic" in2="BackgroundImageFix" result="shape"/>
<feColorMatrix in="SourceAlpha" type="matrix" values="0 0 0 0 0 0 0 0 0 0 0 0 0 0 0 0 0 0 127 0" result="hardAlpha"/>
<feOffset/>
<feGaussianBlur stdDeviation="3.5"/>
<feComposite in2="hardAlpha" operator="arithmetic" k2="-1" k3="1"/>
<feColorMatrix type="matrix" values="0 0 0 0 0 0 0 0 0 0 0 0 0 0 0 0 0 0 0.78 0"/>
<feBlend mode="normal" in2="shape" result="effect1_innerShadow_0_1"/>
</filter>
<filter id="filter3_d_0_1" x="24.5" y="4.31247" width="11.75" height="11.5625" filterUnits="userSpaceOnUse" color-interpolation-filters="sRGB">
<feFlood flood-opacity="0" result="BackgroundImageFix"/>
<feColorMatrix in="SourceAlpha" type="matrix" values="0 0 0 0 0 0 0 0 0 0 0 0 0 0 0 0 0 0 127 0" result="hardAlpha"/>
<feOffset dx="2" dy="1"/>
<feGaussianBlur stdDeviation="2"/>
<feComposite in2="hardAlpha" operator="out"/>
<feColorMatrix type="matrix" values="0 0 0 0 1 0 0 0 0 1 0 0 0 0 1 0 0 0 0.25 0"/>
<feBlend mode="normal" in2="BackgroundImageFix" result="effect1_dropShadow_0_1"/>
<feBlend mode="normal" in="SourceGraphic" in2="effect1_dropShadow_0_1" result="shape"/>
</filter>
<filter id="filter4_d_0_1" x="28.25" y="4.31247" width="11.75" height="11.5625" filterUnits="userSpaceOnUse" color-interpolation-filters="sRGB">
<feFlood flood-opacity="0" result="BackgroundImageFix"/>
<feColorMatrix in="SourceAlpha" type="matrix" values="0 0 0 0 0 0 0 0 0 0 0 0 0 0 0 0 0 0 127 0" result="hardAlpha"/>
<feOffset dx="2" dy="1"/>
<feGaussianBlur stdDeviation="2"/>
<feComposite in2="hardAlpha" operator="out"/>
<feColorMatrix type="matrix" values="0 0 0 0 1 0 0 0 0 1 0 0 0 0 1 0 0 0 0.25 0"/>
<feBlend mode="normal" in2="BackgroundImageFix" result="effect1_dropShadow_0_1"/>
<feBlend mode="normal" in="SourceGraphic" in2="effect1_dropShadow_0_1" result="shape"/>
</filter>
<filter id="filter5_d_0_1" x="32" y="4.31247" width="11.75" height="11.5625" filterUnits="userSpaceOnUse" color-interpolation-filters="sRGB">
<feFlood flood-opacity="0" result="BackgroundImageFix"/>
<feColorMatrix in="SourceAlpha" type="matrix" values="0 0 0 0 0 0 0 0 0 0 0 0 0 0 0 0 0 0 127 0" result="hardAlpha"/>
<feOffset dx="2" dy="1"/>
<feGaussianBlur stdDeviation="2"/>
<feComposite in2="hardAlpha" operator="out"/>
<feColorMatrix type="matrix" values="0 0 0 0 1 0 0 0 0 1 0 0 0 0 1 0 0 0 0.25 0"/>
<feBlend mode="normal" in2="BackgroundImageFix" result="effect1_dropShadow_0_1"/>
<feBlend mode="normal" in="SourceGraphic" in2="effect1_dropShadow_0_1" result="shape"/>
</filter>
<filter id="filter6_d_0_1" x="35.75" y="4.31247" width="11.75" height="11.5625" filterUnits="userSpaceOnUse" color-interpolation-filters="sRGB">
<feFlood flood-opacity="0" result="BackgroundImageFix"/>
<feColorMatrix in="SourceAlpha" type="matrix" values="0 0 0 0 0 0 0 0 0 0 0 0 0 0 0 0 0 0 127 0" result="hardAlpha"/>
<feOffset dx="2" dy="1"/>
<feGaussianBlur stdDeviation="2"/>
<feComposite in2="hardAlpha" operator="out"/>
<feColorMatrix type="matrix" values="0 0 0 0 1 0 0 0 0 1 0 0 0 0 1 0 0 0 0.25 0"/>
<feBlend mode="normal" in2="BackgroundImageFix" result="effect1_dropShadow_0_1"/>
<feBlend mode="normal" in="SourceGraphic" in2="effect1_dropShadow_0_1" result="shape"/>
</filter>
<filter id="filter7_d_0_1" x="39.5" y="4.31247" width="11.75" height="11.5625" filterUnits="userSpaceOnUse" color-interpolation-filters="sRGB">
<feFlood flood-opacity="0" result="BackgroundImageFix"/>
<feColorMatrix in="SourceAlpha" type="matrix" values="0 0 0 0 0 0 0 0 0 0 0 0 0 0 0 0 0 0 127 0" result="hardAlpha"/>
<feOffset dx="2" dy="1"/>
<feGaussianBlur stdDeviation="2"/>
<feComposite in2="hardAlpha" operator="out"/>
<feColorMatrix type="matrix" values="0 0 0 0 1 0 0 0 0 1 0 0 0 0 1 0 0 0 0.25 0"/>
<feBlend mode="normal" in2="BackgroundImageFix" result="effect1_dropShadow_0_1"/>
<feBlend mode="normal" in="SourceGraphic" in2="effect1_dropShadow_0_1" result="shape"/>
</filter>
<radialGradient id="paint0_radial_0_1" cx="0" cy="0" r="1" gradientUnits="userSpaceOnUse" gradientTransform="translate(35 16.5) rotate(153.8) scale(35.107 124.47)">
<stop stop-color="#BBB9DE"/>
<stop offset="0.425626" stop-color="#C2C0DD"/>
<stop offset="0.507304" stop-color="#FAFAFF"/>
<stop offset="0.587638" stop-color="#CBCAEB"/>
<stop offset="0.708725" stop-color="#F0F0F0"/>
<stop offset="0.83276" stop-color="#C4C2E3"/>
<stop offset="1" stop-color="#BBB9DE"/>
</radialGradient>
<linearGradient id="paint1_linear_0_1" x1="18.25" y1="32" x2="18.25" y2="45" gradientUnits="userSpaceOnUse">
<stop offset="0.135417" stop-color="#6F6666"/>
<stop offset="0.192708" stop-color="#B5B0B0" stop-opacity="0.78125"/>
<stop offset="0.28125" stop-color="#4E4949"/>
<stop offset="0.473958" stop-color="#5E5858" stop-opacity="0.631439"/>
<stop offset="0.567708" stop-color="#6F6666" stop-opacity="0.276042"/>
<stop offset="0.666667" stop-color="#3A3A3A"/>
<stop offset="1" stop-color="#6F6666"/>
</linearGradient>
<linearGradient id="paint2_linear_0_1" x1="19.5714" y1="2.40909" x2="15.0181" y2="18.3097" gradientUnits="userSpaceOnUse">
<stop stop-color="#919191"/>
<stop offset="0.302083" stop-color="#B3B0B0"/>
<stop offset="0.395833" stop-color="#F2F2F2"/>
<stop offset="0.484375" stop-color="#919191"/>
<stop offset="0.5625" stop-color="#BAAEAE"/>
<stop offset="0.645833" stop-color="#EEEEEE"/>
<stop offset="0.740784" stop-color="#919191"/>
<stop offset="1" stop-color="#919191"/>
</linearGradient>
</defs>
</svg>
