<svg width="45" height="41" viewBox="0 0 45 41" fill="none" xmlns="http://www.w3.org/2000/svg">
<path d="M6.3166 1.62415C7.1036 0.397353 8.8964 0.397351 9.6834 1.62415L14.6845 9.4201C15.5384 10.7512 14.5826 12.5 13.0011 12.5H2.9989C1.41743 12.5 0.46159 10.7512 1.3155 9.4201L6.3166 1.62415Z" fill="#91F2A1"/>
<rect x="6" y="11" width="4" height="12" rx="2" fill="#91F2A1"/>
<circle cx="18.5" cy="32.5" r="8.5" fill="#F2D84D"/>
<circle cx="18.5" cy="32.5" r="7.5" fill="#BEA23D"/>
<path d="M17.6271 27.5621C18.0087 26.8792 18.9913 26.8792 19.3729 27.5621L20.4285 29.4509C20.5631 29.6919 20.7915 29.8666 21.0594 29.9334L23.1628 30.458C23.8715 30.6348 24.1577 31.4871 23.6993 32.0558L22.2121 33.9009C22.0514 34.1002 21.9733 34.3536 21.9939 34.6088L22.1839 36.9665C22.2452 37.7271 21.4663 38.2733 20.772 37.9566L18.9151 37.1094C18.6514 36.9891 18.3486 36.9891 18.0849 37.1094L16.228 37.9566C15.5337 38.2733 14.7548 37.7271 14.8161 36.9665L15.0061 34.6088C15.0267 34.3536 14.9486 34.1002 14.7879 33.9009L13.3007 32.0558C12.8423 31.4871 13.1285 30.6348 13.8372 30.458L15.9406 29.9334C16.2085 29.8666 16.4369 29.6919 16.5715 29.4509L17.6271 27.5621Z" fill="#F5FABA"/>
<circle cx="27.5" cy="14.5" r="8.5" fill="#F2D84D"/>
<circle cx="27.5" cy="14.5" r="7.5" fill="#BEA23D"/>
<path d="M26.6271 9.56211C27.0087 8.87921 27.9913 8.87921 28.3729 9.56211L29.4285 11.4509C29.5631 11.6919 29.7915 11.8666 30.0594 11.9334L32.1628 12.458C32.8715 12.6348 33.1577 13.4871 32.6993 14.0558L31.2121 15.9009C31.0514 16.1002 30.9733 16.3536 30.9939 16.6088L31.1839 18.9665C31.2452 19.7271 30.4663 20.2733 29.772 19.9566L27.9151 19.1094C27.6514 18.9891 27.3486 18.9891 27.0849 19.1094L25.228 19.9566C24.5337 20.2733 23.7548 19.7271 23.8161 18.9665L24.0061 16.6088C24.0267 16.3536 23.9486 16.1002 23.7879 15.9009L22.3007 14.0558C21.8423 13.4871 22.1285 12.6348 22.8372 12.458L24.9406 11.9334C25.2085 11.8666 25.4369 11.6919 25.5715 11.4509L26.6271 9.56211Z" fill="#F5FABA"/>
<circle cx="36.5" cy="32.5" r="8.5" fill="#F2D84D"/>
<circle cx="36.5" cy="32.5" r="7.5" fill="#BEA23D"/>
<path d="M35.6271 27.5621C36.0087 26.8792 36.9913 26.8792 37.3729 27.5621L38.4285 29.4509C38.5631 29.6919 38.7915 29.8666 39.0594 29.9334L41.1628 30.458C41.8715 30.6348 42.1577 31.4871 41.6993 32.0558L40.2121 33.9009C40.0514 34.1002 39.9733 34.3536 39.9939 34.6088L40.1839 36.9665C40.2452 37.7271 39.4663 38.2733 38.772 37.9566L36.9151 37.1094C36.6514 36.9891 36.3486 36.9891 36.0849 37.1094L34.228 37.9566C33.5337 38.2733 32.7548 37.7271 32.8161 36.9665L33.0061 34.6088C33.0267 34.3536 32.9486 34.1002 32.7879 33.9009L31.3007 32.0558C30.8423 31.4871 31.1285 30.6348 31.8372 30.458L33.9406 29.9334C34.2085 29.8666 34.4369 29.6919 34.5715 29.4509L35.6271 27.5621Z" fill="#F5FABA"/>
</svg>
