<svg width="50" height="50" viewBox="0 0 50 50" fill="none" xmlns="http://www.w3.org/2000/svg">
<g clip-path="url(#clip0_1_2)">
<rect width="50" height="50" rx="5" fill="url(#paint0_diamond_1_2)" fill-opacity="0.8" style="mix-blend-mode:multiply"/>
<g filter="url(#filter0_f_1_2)">
<path d="M3.90931 2.46613C4.11251 1.74042 5.01496 1.49174 5.5612 2.01093L10.0784 6.30444L15.6457 11.596C15.7472 11.6925 15.8678 11.7666 15.9997 11.8135L26.9178 15.694C27.1015 15.7593 27.3004 15.7695 27.4898 15.7232L51.5137 9.859C52.4502 9.63041 53.1361 10.7287 52.5198 11.4698L48.899 15.8243C48.8411 15.8939 48.7929 15.971 48.7558 16.0535L46.144 21.8622C46.0552 22.0598 45.9045 22.2233 45.7147 22.3279L41.1986 24.8169C41.0088 24.9215 40.8581 25.085 40.7692 25.2826L38.2415 30.9044C38.1508 31.1062 37.9956 31.2722 37.8005 31.3764L30.9362 35.0415C30.8023 35.113 30.6864 35.214 30.5974 35.337L26.3836 41.1538C26.2777 41.2999 26.1343 41.4147 25.9686 41.4859L18.2948 44.7838L11.0126 47.4963C10.941 47.523 10.8727 47.5578 10.809 47.6L5.1924 51.3243C4.36517 51.8729 3.33041 51.0113 3.72002 50.0984L12.8708 28.6568C12.9898 28.3781 12.9759 28.0605 12.8332 27.7932L7.87985 18.5166L2.34982 9.18143C2.21068 8.94655 2.17361 8.66501 2.24722 8.40213L3.90931 2.46613Z" fill="#973030"/>
</g>
<g filter="url(#filter1_b_1_2)">
<path d="M5.5344 5.04818C5.74076 4.3259 6.64006 4.08052 7.18467 4.5979L10.9879 8.21096L15.8322 12.813C15.9348 12.9105 16.057 12.9851 16.1906 13.0319L25.7054 16.3621C25.8897 16.4266 26.0888 16.4357 26.2783 16.3884L47.0161 11.2039C47.9545 10.9693 48.6461 12.0711 48.0268 12.8143L45.0742 16.3574C45.0169 16.4261 44.9691 16.5023 44.9321 16.5837L42.6243 21.6607C42.5357 21.8557 42.3868 22.0171 42.1996 22.1211L38.2762 24.3008C38.0889 24.4048 37.9401 24.5662 37.8514 24.7612L35.6274 29.6541C35.5369 29.8532 35.3836 30.0171 35.1911 30.1208L29.1885 33.3529C29.0565 33.424 28.9421 33.5239 28.8539 33.6452L25.1481 38.7407C25.0432 38.8849 24.9017 38.9985 24.7382 39.0696L18 42L11.5944 44.4207C11.5236 44.4475 11.4561 44.4821 11.3932 44.5241L6.80097 47.5856C5.9722 48.1381 4.93333 47.2715 5.32821 46.3571L13.2977 27.9013C13.4179 27.6229 13.4053 27.305 13.2635 27.037L8.9879 18.961L4.20527 10.8305C4.06647 10.5945 4.03047 10.312 4.10568 10.0487L5.5344 5.04818Z" fill="url(#paint1_linear_1_2)"/>
<path d="M9.20885 18.844L9.20907 18.8439L9.20338 18.8342L4.42075 10.7037C4.31665 10.5268 4.28965 10.3148 4.34606 10.1174L5.77478 5.11686C5.92955 4.57515 6.60403 4.39112 7.01248 4.77915L10.8157 8.39221L15.66 12.9943C15.7883 13.1162 15.941 13.2094 16.108 13.2679L25.6228 16.598C25.8532 16.6787 26.1021 16.6901 26.3389 16.6309L47.0767 11.4465C47.7805 11.2705 48.2992 12.0969 47.8348 12.6542L44.8822 16.1973C44.8106 16.2833 44.7508 16.3784 44.7045 16.4803L42.3968 21.5573C42.3303 21.7035 42.2186 21.8246 42.0782 21.9026L38.1547 24.0823C37.9207 24.2123 37.7346 24.414 37.6238 24.6577L35.3998 29.5506C35.3319 29.6999 35.217 29.8229 35.0726 29.9006L29.07 33.1328C28.9049 33.2217 28.762 33.3466 28.6517 33.4982L24.9459 38.5937C24.8672 38.7018 24.7611 38.787 24.6384 38.8403L17.9059 41.7683L11.506 44.1869C11.4175 44.2203 11.3332 44.2636 11.2545 44.3161L6.66229 47.3776C6.04072 47.792 5.26157 47.142 5.55772 46.4562L13.5272 28.0005C13.6775 27.6525 13.6618 27.2551 13.4844 26.92L9.20885 18.844Z" stroke="black" stroke-width="0.5"/>
</g>
<g filter="url(#filter2_i_1_2)">
<path d="M6.21448 46.7447L9.0469 40.1142L13.1191 39.2305L15.4569 33.0997L20.5182 31.2168L22.3808 26.1045L27.9752 24.7597L29.3433 20.1471L34.4431 19.3021L35.8497 15.7273L40.4743 15.9009L42.4525 13.9022L47 12" stroke="white" stroke-width="0.5"/>
</g>
<g filter="url(#filter3_iii_1_2)">
<path d="M5.49999 47L15.5 37.5L25.5 28L36 19L47.5 11.5L48 12.5L45 15.5L42 22L38 24L35 29.5L29 33L24.5 38.5L18 41.5L11.5 44L7.41592 46.8588C6.85156 47.2539 6.11615 47.3081 5.49999 47V47Z" fill="#722121" fill-opacity="0.71"/>
</g>
<g filter="url(#filter4_f_1_2)">
<line x1="17.4539" y1="28.2069" x2="11.5448" y2="15.2069" stroke="#0C0B0B"/>
</g>
<g filter="url(#filter5_f_1_2)">
<path d="M13.5 25L22 16.5" stroke="#0C0B0B"/>
</g>
<g filter="url(#filter6_f_1_2)">
<line x1="24.7931" y1="21.3643" x2="11.7931" y2="15.4552" stroke="#0C0B0B"/>
</g>
<line x1="17.5448" y1="27.2069" x2="12.5448" y2="16.2069" stroke="#FFFAFA"/>
<path d="M13.8213 25.0121L21.5 17" stroke="#FFFAFA"/>
<line x1="23.7931" y1="21.4552" x2="12.7931" y2="16.4552" stroke="#FFFAFA"/>
<path d="M4.85594 10.9749L6.5 8.5L8.81743 6.76572L9.53474 7.46247L7 9L5.5 12L4.85594 10.9749Z" fill="#D9D9D9"/>
<path d="M6.10487 13.0256L7.99443 10.298L10.5521 8.31629L11.2695 9.01304L8.49357 10.7988L6.72484 14.0755L6.10487 13.0256Z" fill="#D9D9D9"/>
</g>
<defs>
<filter id="filter0_f_1_2" x="-7.78982" y="-8.26483" width="70.5448" height="69.761" filterUnits="userSpaceOnUse" color-interpolation-filters="sRGB">
<feFlood flood-opacity="0" result="BackgroundImageFix"/>
<feBlend mode="normal" in="SourceGraphic" in2="BackgroundImageFix" result="shape"/>
<feGaussianBlur stdDeviation="5" result="effect1_foregroundBlur_1_2"/>
</filter>
<filter id="filter1_b_1_2" x="-5.9328" y="-5.67767" width="64.1956" height="63.4365" filterUnits="userSpaceOnUse" color-interpolation-filters="sRGB">
<feFlood flood-opacity="0" result="BackgroundImageFix"/>
<feGaussianBlur in="BackgroundImageFix" stdDeviation="5"/>
<feComposite in2="SourceAlpha" operator="in" result="effect1_backgroundBlur_1_2"/>
<feBlend mode="normal" in="SourceGraphic" in2="effect1_backgroundBlur_1_2" result="shape"/>
</filter>
<filter id="filter2_i_1_2" x="5.98458" y="11.7694" width="41.1119" height="39.0735" filterUnits="userSpaceOnUse" color-interpolation-filters="sRGB">
<feFlood flood-opacity="0" result="BackgroundImageFix"/>
<feBlend mode="normal" in="SourceGraphic" in2="BackgroundImageFix" result="shape"/>
<feColorMatrix in="SourceAlpha" type="matrix" values="0 0 0 0 0 0 0 0 0 0 0 0 0 0 0 0 0 0 127 0" result="hardAlpha"/>
<feOffset dy="4"/>
<feGaussianBlur stdDeviation="2"/>
<feComposite in2="hardAlpha" operator="arithmetic" k2="-1" k3="1"/>
<feColorMatrix type="matrix" values="0 0 0 0 0 0 0 0 0 0 0 0 0 0 0 0 0 0 0.25 0"/>
<feBlend mode="normal" in2="shape" result="effect1_innerShadow_1_2"/>
</filter>
<filter id="filter3_iii_1_2" x="5.49999" y="11.5" width="42.5" height="39.6982" filterUnits="userSpaceOnUse" color-interpolation-filters="sRGB">
<feFlood flood-opacity="0" result="BackgroundImageFix"/>
<feBlend mode="normal" in="SourceGraphic" in2="BackgroundImageFix" result="shape"/>
<feColorMatrix in="SourceAlpha" type="matrix" values="0 0 0 0 0 0 0 0 0 0 0 0 0 0 0 0 0 0 127 0" result="hardAlpha"/>
<feOffset dy="4"/>
<feGaussianBlur stdDeviation="2"/>
<feComposite in2="hardAlpha" operator="arithmetic" k2="-1" k3="1"/>
<feColorMatrix type="matrix" values="0 0 0 0 0 0 0 0 0 0 0 0 0 0 0 0 0 0 0.25 0"/>
<feBlend mode="normal" in2="shape" result="effect1_innerShadow_1_2"/>
<feColorMatrix in="SourceAlpha" type="matrix" values="0 0 0 0 0 0 0 0 0 0 0 0 0 0 0 0 0 0 127 0" result="hardAlpha"/>
<feOffset dy="4"/>
<feGaussianBlur stdDeviation="2"/>
<feComposite in2="hardAlpha" operator="arithmetic" k2="-1" k3="1"/>
<feColorMatrix type="matrix" values="0 0 0 0 0 0 0 0 0 0 0 0 0 0 0 0 0 0 0.25 0"/>
<feBlend mode="normal" in2="effect1_innerShadow_1_2" result="effect2_innerShadow_1_2"/>
<feColorMatrix in="SourceAlpha" type="matrix" values="0 0 0 0 0 0 0 0 0 0 0 0 0 0 0 0 0 0 127 0" result="hardAlpha"/>
<feOffset dy="4"/>
<feGaussianBlur stdDeviation="2"/>
<feComposite in2="hardAlpha" operator="arithmetic" k2="-1" k3="1"/>
<feColorMatrix type="matrix" values="0 0 0 0 0 0 0 0 0 0 0 0 0 0 0 0 0 0 0.25 0"/>
<feBlend mode="normal" in2="effect2_innerShadow_1_2" result="effect3_innerShadow_1_2"/>
</filter>
<filter id="filter4_f_1_2" x="7.08963" y="11" width="14.8195" height="21.4138" filterUnits="userSpaceOnUse" color-interpolation-filters="sRGB">
<feFlood flood-opacity="0" result="BackgroundImageFix"/>
<feBlend mode="normal" in="SourceGraphic" in2="BackgroundImageFix" result="shape"/>
<feGaussianBlur stdDeviation="2" result="effect1_foregroundBlur_1_2"/>
</filter>
<filter id="filter5_f_1_2" x="9.14645" y="12.1465" width="17.2071" height="17.2071" filterUnits="userSpaceOnUse" color-interpolation-filters="sRGB">
<feFlood flood-opacity="0" result="BackgroundImageFix"/>
<feBlend mode="normal" in="SourceGraphic" in2="BackgroundImageFix" result="shape"/>
<feGaussianBlur stdDeviation="2" result="effect1_foregroundBlur_1_2"/>
</filter>
<filter id="filter6_f_1_2" x="7.5862" y="11" width="21.4138" height="14.8195" filterUnits="userSpaceOnUse" color-interpolation-filters="sRGB">
<feFlood flood-opacity="0" result="BackgroundImageFix"/>
<feBlend mode="normal" in="SourceGraphic" in2="BackgroundImageFix" result="shape"/>
<feGaussianBlur stdDeviation="2" result="effect1_foregroundBlur_1_2"/>
</filter>
<radialGradient id="paint0_diamond_1_2" cx="0" cy="0" r="1" gradientUnits="userSpaceOnUse" gradientTransform="translate(2 3.03745e-06) rotate(46.232) scale(65.7761)">
<stop/>
<stop offset="0.526042" stop-color="#570D0D"/>
<stop offset="1"/>
</radialGradient>
<linearGradient id="paint1_linear_1_2" x1="7.5" y1="46" x2="48" y2="11.5" gradientUnits="userSpaceOnUse">
<stop stop-color="#D63D3D"/>
<stop offset="0.508484" stop-color="#983737"/>
<stop offset="1" stop-color="#D02E2E"/>
</linearGradient>
<clipPath id="clip0_1_2">
<rect width="50" height="50" rx="5" fill="white"/>
</clipPath>
</defs>
</svg>
