<svg width="50" height="50" viewBox="0 0 50 50" fill="none" xmlns="http://www.w3.org/2000/svg">
<g clip-path="url(#clip0_1_2)">
<rect width="50" height="50" rx="5" fill="url(#paint0_diamond_1_2)" fill-opacity="0.8" style="mix-blend-mode:multiply"/>
<g filter="url(#filter0_f_1_2)">
<line x1="17.4539" y1="28.2069" x2="11.5448" y2="15.2069" stroke="#0C0B0B"/>
</g>
<g filter="url(#filter1_f_1_2)">
<path d="M3.95011 10.7035C3.76914 10.1267 4.13736 9.52249 4.73294 9.41893L12.3788 8.08946C12.6903 8.03528 12.9579 7.8369 13.1003 7.55453L17.4391 -1.04885C17.7069 -1.57991 18.3763 -1.76122 18.8755 -1.43794L30.5286 6.10803C30.6432 6.18223 30.7413 6.27911 30.8171 6.39271L39.0956 18.8105C39.3884 19.2497 39.2895 19.8408 38.8696 20.1607L21.4836 33.4072C21.1347 33.673 20.6533 33.6804 20.2963 33.4255L8.68953 25.1349C8.51262 25.0085 8.38171 24.828 8.31663 24.6205L3.95011 10.7035Z" fill="url(#paint1_linear_1_2)" fill-opacity="0.3"/>
<path d="M4.2176 11.556C3.89496 10.5277 4.55143 9.45049 5.61324 9.26586L11.9911 8.15687C12.5466 8.06028 13.0236 7.70661 13.2775 7.20318L17.0465 -0.270327C17.5239 -1.21712 18.7173 -1.54038 19.6074 -0.964019L30.3926 6.01997C30.5969 6.15226 30.7719 6.32499 30.9069 6.52751L38.688 18.199C39.2099 18.982 39.0335 20.0358 38.285 20.6061L21.943 33.0571C21.321 33.5311 20.4627 33.5443 19.8263 33.0897L8.90294 25.2873C8.58754 25.062 8.35415 24.7401 8.23812 24.3703L4.2176 11.556Z" fill="url(#paint2_linear_1_2)" fill-opacity="0.3"/>
</g>
<path d="M20.1012 20.0727L23.8892 16.9916L36 31L39.0208 36.4831L42.5058 39.4952L55.2584 55.5571L51.4704 58.6383L38.1037 42.4157L33 34.5L30 30.5L27 28L25.5 24.5L20.1012 20.0727Z" fill="url(#paint3_linear_1_2)"/>
<g filter="url(#filter2_d_1_2)">
<path d="M10.1446 12.4928C9.9636 11.916 10.3318 11.3117 10.9274 11.2082L14.5048 10.5861C14.8163 10.532 15.0839 10.3336 15.2263 10.0512L17.3404 5.85926C17.6082 5.3282 18.2775 5.14688 18.7768 5.47017L24.8263 9.38753C24.9409 9.46174 25.0391 9.55862 25.1148 9.67221L29.4792 16.2188C29.772 16.658 29.6731 17.2491 29.2532 17.569L20.0869 24.5528C19.738 24.8187 19.2565 24.8261 18.8996 24.5711L12.7726 20.1947C12.5957 20.0684 12.4648 19.8878 12.3997 19.6804L10.1446 12.4928Z" fill="url(#paint4_linear_1_2)"/>
<path d="M10.1446 12.4928C9.9636 11.916 10.3318 11.3117 10.9274 11.2082L14.5048 10.5861C14.8163 10.532 15.0839 10.3336 15.2263 10.0512L17.3404 5.85926C17.6082 5.3282 18.2775 5.14688 18.7768 5.47017L24.8263 9.38753C24.9409 9.46174 25.0391 9.55862 25.1148 9.67221L29.4792 16.2188C29.772 16.658 29.6731 17.2491 29.2532 17.569L20.0869 24.5528C19.738 24.8187 19.2565 24.8261 18.8996 24.5711L12.7726 20.1947C12.5957 20.0684 12.4648 19.8878 12.3997 19.6804L10.1446 12.4928Z" fill="url(#paint5_linear_1_2)"/>
</g>
<path d="M38.1096 42.4178L42.2051 39.0865L49.2967 47.805L45.2012 51.1363L38.1096 42.4178Z" fill="url(#paint6_linear_1_2)"/>
<g filter="url(#filter3_f_1_2)">
<path d="M11.5443 14.0894L14.2297 13.7594L17.6137 13.5386L12.1948 18.2108L11.5443 14.0894Z" fill="#5653FC"/>
<path d="M11.5443 14.0894L14.2297 13.7594L17.6137 13.5386L12.1948 18.2108L11.5443 14.0894Z" fill="#5653FC"/>
</g>
<path d="M12.6205 14.8136L14.6205 14.3136L17.1205 13.8136L12.6669 17.4935L12.6205 14.8136Z" fill="#040336"/>
<path d="M12.6205 14.8136L14.6205 14.3136L17.1205 13.8136L12.6669 17.4935L12.6205 14.8136Z" fill="#040336"/>
<g filter="url(#filter4_f_1_2)">
<path d="M19.9746 8.2029L18.9197 10.5851L17.7665 13.6216L23.513 9.52257L19.9746 8.2029Z" fill="#5F5CDB"/>
<path d="M19.9746 8.2029L18.9197 10.5851L17.7665 13.6216L23.513 9.52257L19.9746 8.2029Z" fill="#5F5CDB"/>
</g>
<path d="M20.2068 9.05322L19.2314 10.8694L18.1332 13.1703L22.7935 9.75587L20.2068 9.05322Z" fill="#040336"/>
<path d="M20.2068 9.05322L19.2314 10.8694L18.1332 13.1703L22.7935 9.75587L20.2068 9.05322Z" fill="#040336"/>
</g>
<defs>
<filter id="filter0_f_1_2" x="7.08963" y="11" width="14.8195" height="21.4138" filterUnits="userSpaceOnUse" color-interpolation-filters="sRGB">
<feFlood flood-opacity="0" result="BackgroundImageFix"/>
<feBlend mode="normal" in="SourceGraphic" in2="BackgroundImageFix" result="shape"/>
<feGaussianBlur stdDeviation="2" result="effect1_foregroundBlur_1_2"/>
</filter>
<filter id="filter1_f_1_2" x="-0.0961723" y="-5.59879" width="43.3598" height="43.2105" filterUnits="userSpaceOnUse" color-interpolation-filters="sRGB">
<feFlood flood-opacity="0" result="BackgroundImageFix"/>
<feBlend mode="normal" in="SourceGraphic" in2="BackgroundImageFix" result="shape"/>
<feGaussianBlur stdDeviation="2" result="effect1_foregroundBlur_1_2"/>
</filter>
<filter id="filter2_d_1_2" x="6.09829" y="5.30933" width="27.549" height="27.4481" filterUnits="userSpaceOnUse" color-interpolation-filters="sRGB">
<feFlood flood-opacity="0" result="BackgroundImageFix"/>
<feColorMatrix in="SourceAlpha" type="matrix" values="0 0 0 0 0 0 0 0 0 0 0 0 0 0 0 0 0 0 127 0" result="hardAlpha"/>
<feOffset dy="4"/>
<feGaussianBlur stdDeviation="2"/>
<feComposite in2="hardAlpha" operator="out"/>
<feColorMatrix type="matrix" values="0 0 0 0 0 0 0 0 0 0 0 0 0 0 0 0 0 0 0.25 0"/>
<feBlend mode="normal" in2="BackgroundImageFix" result="effect1_dropShadow_1_2"/>
<feBlend mode="normal" in="SourceGraphic" in2="effect1_dropShadow_1_2" result="shape"/>
</filter>
<filter id="filter3_f_1_2" x="7.54429" y="9.53864" width="14.0694" height="12.6722" filterUnits="userSpaceOnUse" color-interpolation-filters="sRGB">
<feFlood flood-opacity="0" result="BackgroundImageFix"/>
<feBlend mode="normal" in="SourceGraphic" in2="BackgroundImageFix" result="shape"/>
<feGaussianBlur stdDeviation="2" result="effect1_foregroundBlur_1_2"/>
</filter>
<filter id="filter4_f_1_2" x="13.7665" y="4.20291" width="13.7465" height="13.4187" filterUnits="userSpaceOnUse" color-interpolation-filters="sRGB">
<feFlood flood-opacity="0" result="BackgroundImageFix"/>
<feBlend mode="normal" in="SourceGraphic" in2="BackgroundImageFix" result="shape"/>
<feGaussianBlur stdDeviation="2" result="effect1_foregroundBlur_1_2"/>
</filter>
<radialGradient id="paint0_diamond_1_2" cx="0" cy="0" r="1" gradientUnits="userSpaceOnUse" gradientTransform="translate(2 3.03745e-06) rotate(46.232) scale(65.7761)">
<stop/>
<stop offset="0.526042" stop-color="#513896"/>
<stop offset="1"/>
</radialGradient>
<linearGradient id="paint1_linear_1_2" x1="10.7745" y1="3.78553" x2="29.6116" y2="26.944" gradientUnits="userSpaceOnUse">
<stop stop-color="#DBB874"/>
<stop offset="1" stop-color="#8E6007"/>
</linearGradient>
<linearGradient id="paint2_linear_1_2" x1="10.7745" y1="3.78553" x2="29.6116" y2="26.944" gradientUnits="userSpaceOnUse">
<stop stop-color="#DBB874"/>
<stop offset="1" stop-color="#8E6007"/>
</linearGradient>
<linearGradient id="paint3_linear_1_2" x1="21.9952" y1="18.5322" x2="53.3644" y2="57.0977" gradientUnits="userSpaceOnUse">
<stop stop-color="#7A5010"/>
<stop offset="0.40625" stop-color="#D1A35E"/>
<stop offset="0.989583" stop-color="#8D6527"/>
</linearGradient>
<linearGradient id="paint4_linear_1_2" x1="13.8224" y1="8.13422" x2="24.3882" y2="21.1239" gradientUnits="userSpaceOnUse">
<stop stop-color="#DBB874"/>
<stop offset="1" stop-color="#8E6007"/>
</linearGradient>
<linearGradient id="paint5_linear_1_2" x1="13.8224" y1="8.13422" x2="24.3882" y2="21.1239" gradientUnits="userSpaceOnUse">
<stop stop-color="#DBB874"/>
<stop offset="1" stop-color="#8E6007"/>
</linearGradient>
<linearGradient id="paint6_linear_1_2" x1="40.1573" y1="40.7522" x2="47.249" y2="49.4707" gradientUnits="userSpaceOnUse">
<stop stop-color="#0E5916"/>
<stop offset="0.5" stop-color="#306211"/>
<stop offset="1" stop-color="#134E0A"/>
</linearGradient>
<clipPath id="clip0_1_2">
<rect width="50" height="50" rx="5" fill="white"/>
</clipPath>
</defs>
</svg>
