<svg width="50" height="50" viewBox="0 0 50 50" fill="none" xmlns="http://www.w3.org/2000/svg">
<rect width="50" height="50" rx="5" fill="url(#paint0_diamond_1_2)" fill-opacity="0.8" style="mix-blend-mode:multiply"/>
<g filter="url(#filter0_ddd_1_2)">
<path d="M29.9687 9.54702C34.109 10.578 37.7047 13.0046 40.0749 16.3673C42.4451 19.73 43.4254 23.7954 42.8301 27.7937C42.2348 31.7921 40.1053 35.4459 36.8447 38.0633C33.5841 40.6807 29.4188 42.0801 25.1375 41.9965C20.8562 41.9128 16.7559 40.352 13.6131 37.6095C10.4703 34.867 8.50316 31.1331 8.08403 27.115C7.66489 23.0968 8.82291 19.0732 11.3388 15.8059C13.8547 12.5387 17.5539 10.2546 21.7359 9.38619L22.1416 11.123C18.4103 11.8978 15.1099 13.9357 12.8651 16.8508C10.6204 19.7659 9.58717 23.3558 9.96113 26.9409C10.3351 30.526 12.0903 33.8574 14.8943 36.3043C17.6984 38.7512 21.3567 40.1438 25.1766 40.2185C28.9965 40.2931 32.7128 39.0445 35.622 36.7092C38.5311 34.3739 40.4311 31.1139 40.9622 27.5465C41.4934 23.9791 40.6188 20.3519 38.504 17.3516C36.3892 14.3514 33.1811 12.1863 29.4871 11.2664L29.9687 9.54702Z" fill="url(#paint1_linear_1_2)"/>
</g>
<g filter="url(#filter1_i_1_2)">
<path d="M29.4541 11.4798C33.1297 12.387 36.3208 14.5261 38.4206 17.4904C40.5205 20.4548 41.3826 24.0376 40.8431 27.5578C40.3037 31.0779 38.4002 34.2898 35.4947 36.5829C32.5892 38.8759 28.8842 40.0902 25.0842 39.9948C21.2842 39.8994 17.6541 38.501 14.8843 36.0654C12.1144 33.6299 10.3978 30.3271 10.061 26.7849C9.72412 23.2428 10.7904 19.7084 13.0572 16.8537C15.324 13.9989 18.6331 12.023 22.3554 11.3015L25.5 25.5L29.4541 11.4798Z" fill="#041101" fill-opacity="0.63"/>
</g>
<path d="M25.2559 25.5541L25.7406 25.5679L29.6286 11.7822C33.1496 12.7075 36.1977 14.7848 38.2166 17.6349C40.2798 20.5476 41.1254 24.0653 40.596 27.5199C40.0665 30.9748 38.1978 34.1311 35.3398 36.3866C32.4814 38.6425 28.8338 39.8388 25.0904 39.7449C21.3471 39.6509 17.7738 38.2733 15.0493 35.8777C12.3253 33.4825 10.6405 30.2375 10.3099 26.7613C9.97928 23.2852 11.0253 19.8146 13.253 17.0091C15.4326 14.2641 18.5955 12.3426 22.1644 11.5951L25.2559 25.5541Z" stroke="#45043A" stroke-width="0.5"/>
<g filter="url(#filter2_i_1_2)">
<path d="M29.4541 11.4798C33.1297 12.387 36.3208 14.5261 38.4206 17.4904C40.5205 20.4548 41.3826 24.0376 40.8431 27.5578C40.3037 31.0779 38.4002 34.2898 35.4947 36.5829C32.5892 38.8759 28.8842 40.0902 25.0842 39.9948C21.2842 39.8994 17.6541 38.501 14.8843 36.0654C12.1144 33.6299 10.3978 30.3271 10.061 26.7849C9.72412 23.2428 10.7904 19.7084 13.0572 16.8537C15.324 13.9989 18.6331 12.023 22.3554 11.3015L25.5 25.5L29.4541 11.4798Z" fill="url(#paint2_angular_1_2)" fill-opacity="0.3"/>
</g>
<path d="M25.2559 25.5541L25.7406 25.5679L29.6286 11.7822C33.1496 12.7075 36.1977 14.7848 38.2166 17.6349C40.2798 20.5476 41.1254 24.0653 40.596 27.5199C40.0665 30.9748 38.1978 34.1311 35.3398 36.3866C32.4814 38.6425 28.8338 39.8388 25.0904 39.7449C21.3471 39.6509 17.7738 38.2733 15.0493 35.8777C12.3253 33.4825 10.6405 30.2375 10.3099 26.7613C9.97928 23.2852 11.0253 19.8146 13.253 17.0091C15.4326 14.2641 18.5955 12.3426 22.1644 11.5951L25.2559 25.5541Z" stroke="#45043A" stroke-width="0.5"/>
<path d="M22 31.9058C22 30.1661 23.4103 28.7558 25.15 28.7558V31.5282C25.15 31.7215 25.3067 31.8782 25.5 31.8782C25.6933 31.8782 25.85 31.7215 25.85 31.5282V28.7558C27.5897 28.7558 29 30.1661 29 31.9058V39.1071L27.2051 39.3869L25.5 39.5L23.5 39.3869L22 39.2558V31.9058Z" fill="#E1958B"/>
<path d="M15.9299 29.8598C16.9097 28.7412 18.6018 28.6055 19.7474 29.5537L18.5852 30.9579C18.4807 31.0842 18.4984 31.2712 18.6247 31.3757C18.7509 31.4802 18.938 31.4626 19.0425 31.3363L20.2047 29.9321C21.3326 30.8656 21.4698 32.5451 20.5082 33.6492L17.2944 37.3397L14.8258 35.3558L12.8249 33.4044L15.9299 29.8598Z" fill="#E1958B"/>
<path d="M35.0556 30.2414C34.1819 29.1646 32.606 28.9965 31.5256 29.8559L32.625 31.1842C32.7443 31.3284 32.7241 31.5419 32.58 31.6612C32.4359 31.7805 32.2223 31.7603 32.1031 31.6162L31.0037 30.2878C29.9498 31.1943 29.8027 32.7781 30.6802 33.864L33.5151 37.3726L34.9067 36.4259L35.8734 35.4756L36.8407 34.5247L37.6542 33.4436L35.0556 30.2414Z" fill="url(#paint3_linear_1_2)" stroke="url(#paint4_linear_1_2)" stroke-width="0.1"/>
<path d="M16.6347 19.3096C17.7388 20.7424 19.8108 20.9743 21.2043 19.821L20.0896 18.4741C19.9601 18.3177 19.982 18.0859 20.1384 17.9564C20.2949 17.8269 20.5267 17.8488 20.6562 18.0052L21.7709 19.3521C23.1768 18.1885 23.3679 16.1034 22.1969 14.7036L20.1985 12.315L18.4421 13.0272L16.6303 14.2853L14.196 16.1447L16.6347 19.3096Z" fill="#E1958B"/>
<path d="M33.2108 19.4078C32.3436 20.4705 30.7769 20.6237 29.7203 19.7492L30.9096 18.3121C31.007 18.1945 30.9905 18.0202 30.8729 17.9228C30.7552 17.8254 30.5809 17.8419 30.4836 17.9595L29.2942 19.3966C28.2259 18.5124 28.0528 16.9396 28.9033 15.8442L31.5 12.5L33.9299 13.8593L36.2386 15.6975L33.2108 19.4078Z" fill="#E1958B"/>
<path d="M32.9282 21.9838C31.3163 21.9801 30.0125 23.2948 30.0295 24.9065L32.9346 24.8759C33.1143 24.874 33.2616 25.0182 33.2635 25.198C33.2654 25.3778 33.1212 25.525 32.9414 25.5269L30.0363 25.5575C30.0534 27.1746 31.3795 28.471 32.9966 28.4512L40.504 28.3595L40.5013 25.1044L40.5 23.5L40 22L32.9282 21.9838Z" fill="#E1958B"/>
<path d="M17.7885 22.1891C19.3213 22.1592 20.5755 23.4022 20.5593 24.9352L17.6399 24.9044C17.468 24.9026 17.3272 25.0404 17.3254 25.2123C17.3236 25.3842 17.4615 25.525 17.6333 25.5268L20.5527 25.5575C20.5364 27.109 19.274 28.3582 17.7224 28.3582L10.7656 28.3582L10.5262 25.6382L10.7656 22.3262L17.7885 22.1891Z" fill="#E1958B"/>
<path d="M19 25H32V25.5H19V25Z" fill="#D9D9D9"/>
<path d="M19 25H32V25.5H19V25Z" fill="#D9D9D9"/>
<path d="M25.7756 30.9915L25.7759 25L25.2602 25L25.26 30.9915L25.7756 30.9915Z" fill="#D9D9D9"/>
<path d="M25.7756 30.9915L25.7759 25L25.2602 25L25.26 30.9915L25.7756 30.9915Z" fill="#D9D9D9"/>
<path d="M25.7756 23.9915L25.7763 7.14762L25.2606 7.1476L25.26 23.9915L25.7756 23.9915Z" fill="#D9D9D9"/>
<path d="M25.7756 23.9915L25.7763 7.14762L25.2606 7.1476L25.26 23.9915L25.7756 23.9915Z" fill="#D9D9D9"/>
<path d="M21.3668 19L32.0269 30.5084L31.6601 30.8482L21 19.3398L21.3668 19Z" fill="#D9D9D9"/>
<path d="M21.3668 19L32.0269 30.5084L31.6601 30.8482L21 19.3398L21.3668 19Z" fill="#D9D9D9"/>
<path d="M29.6601 19L19 30.5084L19.3668 30.8482L30.0269 19.3398L29.6601 19Z" fill="#D9D9D9"/>
<path d="M29.6601 19L19 30.5084L19.3668 30.8482L30.0269 19.3398L29.6601 19Z" fill="#D9D9D9"/>
<circle cx="25.5" cy="8.5" r="2.5" fill="#D9D9D9"/>
<path d="M24.8754 7.58768C24.5909 7.77507 24.2712 7.90235 23.9358 7.96173C23.6004 8.0211 23.2564 8.01131 22.9249 7.93295C22.5934 7.85459 22.2814 7.70932 22.0081 7.50606C21.7348 7.30279 21.5059 7.04582 21.3355 6.7509C21.165 6.45599 21.0567 6.12936 21.017 5.79106C20.9773 5.45276 21.0072 5.10992 21.1048 4.78359C21.2025 4.45725 21.3657 4.15431 21.5846 3.89335C21.8035 3.63238 22.0734 3.4189 22.3778 3.26601L22.8514 4.2087C22.6754 4.29707 22.5194 4.42047 22.3929 4.57131C22.2663 4.72216 22.172 4.89727 22.1155 5.0859C22.0591 5.27452 22.0418 5.47269 22.0648 5.66824C22.0877 5.86379 22.1503 6.05259 22.2488 6.22305C22.3474 6.39352 22.4797 6.54206 22.6377 6.65955C22.7956 6.77704 22.976 6.86101 23.1676 6.90631C23.3592 6.9516 23.558 6.95726 23.7519 6.92294C23.9458 6.88862 24.1306 6.81505 24.295 6.70673L24.8754 7.58768Z" fill="#D9D9D9"/>
<path d="M20.1034 3.52407C20.364 3.33568 20.6582 3.20206 20.9692 3.13084C21.2801 3.05962 21.6018 3.05219 21.9157 3.10897C22.2297 3.16576 22.5298 3.28565 22.799 3.4618C23.0682 3.63795 23.3011 3.8669 23.4845 4.1356C23.6679 4.40429 23.7982 4.70746 23.8679 5.02779C23.9376 5.34813 23.9454 5.67935 23.8908 6.00256C23.8362 6.32576 23.7203 6.63462 23.5497 6.91149C23.3791 7.18836 23.1572 7.42782 22.8966 7.61621L22.3073 6.75282C22.4579 6.64393 22.5862 6.50551 22.6848 6.34547C22.7834 6.18543 22.8504 6.00691 22.8819 5.82009C22.9135 5.63327 22.909 5.44181 22.8687 5.25665C22.8284 5.07149 22.7531 4.89625 22.6471 4.74094C22.5411 4.58563 22.4064 4.45328 22.2509 4.35147C22.0953 4.24965 21.9218 4.18035 21.7403 4.14752C21.5588 4.1147 21.3729 4.119 21.1932 4.16016C21.0134 4.20133 20.8434 4.27857 20.6927 4.38746L20.1034 3.52407Z" fill="#D9D9D9"/>
<path d="M22.8785 4.35248C22.5926 4.53759 22.2719 4.66232 21.936 4.71901C21.6001 4.7757 21.2562 4.76316 20.9254 4.68216C20.5945 4.60116 20.2837 4.4534 20.012 4.24796C19.7403 4.04251 19.5135 3.78372 19.3454 3.48745C19.1774 3.19119 19.0716 2.86371 19.0346 2.5251C18.9977 2.18649 19.0303 1.8439 19.1305 1.51836C19.2307 1.19282 19.3964 0.891185 19.6174 0.631977C19.8384 0.372769 20.11 0.161452 20.4156 0.0109947L20.8816 0.957436C20.7049 1.0444 20.5479 1.16655 20.4202 1.31638C20.2925 1.46621 20.1967 1.64056 20.1388 1.82873C20.0809 2.0169 20.062 2.21493 20.0834 2.41065C20.1047 2.60637 20.1658 2.79567 20.263 2.96692C20.3601 3.13816 20.4913 3.28775 20.6483 3.40651C20.8053 3.52526 20.985 3.61066 21.1762 3.65748C21.3675 3.70431 21.5663 3.71155 21.7604 3.67878C21.9545 3.64601 22.1399 3.57392 22.3052 3.46692L22.8785 4.35248Z" fill="#D9D9D9"/>
<path d="M26.1246 7.58768C26.4091 7.77507 26.7288 7.90235 27.0642 7.96173C27.3996 8.0211 27.7436 8.01131 28.0751 7.93295C28.4066 7.85459 28.7186 7.70932 28.9919 7.50606C29.2652 7.30279 29.4941 7.04582 29.6645 6.7509C29.835 6.45599 29.9433 6.12936 29.983 5.79106C30.0227 5.45276 29.9928 5.10992 29.8952 4.78359C29.7975 4.45725 29.6343 4.15431 29.4154 3.89335C29.1965 3.63238 28.9266 3.4189 28.6222 3.26601L28.1486 4.2087C28.3246 4.29707 28.4806 4.42047 28.6071 4.57131C28.7337 4.72216 28.828 4.89727 28.8845 5.0859C28.9409 5.27452 28.9582 5.47269 28.9352 5.66824C28.9123 5.86379 28.8497 6.05259 28.7512 6.22305C28.6526 6.39352 28.5203 6.54206 28.3623 6.65955C28.2044 6.77704 28.024 6.86101 27.8324 6.90631C27.6408 6.9516 27.442 6.95726 27.2481 6.92294C27.0542 6.88862 26.8694 6.81505 26.705 6.70673L26.1246 7.58768Z" fill="#D9D9D9"/>
<path d="M30.8966 3.52407C30.636 3.33568 30.3418 3.20206 30.0308 3.13084C29.7199 3.05962 29.3982 3.05219 29.0843 3.10897C28.7703 3.16576 28.4702 3.28565 28.201 3.4618C27.9318 3.63795 27.6989 3.8669 27.5155 4.1356C27.3321 4.40429 27.2018 4.70746 27.1321 5.02779C27.0624 5.34813 27.0546 5.67935 27.1092 6.00256C27.1638 6.32576 27.2797 6.63462 27.4503 6.91149C27.6209 7.18836 27.8428 7.42782 28.1034 7.61621L28.6927 6.75282C28.5421 6.64393 28.4138 6.50551 28.3152 6.34547C28.2166 6.18543 28.1496 6.00691 28.1181 5.82009C28.0865 5.63327 28.091 5.44181 28.1313 5.25665C28.1716 5.07149 28.2469 4.89625 28.3529 4.74094C28.4589 4.58563 28.5936 4.45328 28.7491 4.35147C28.9047 4.24965 29.0782 4.18035 29.2597 4.14752C29.4412 4.1147 29.6271 4.119 29.8068 4.16016C29.9866 4.20133 30.1566 4.27857 30.3073 4.38746L30.8966 3.52407Z" fill="#D9D9D9"/>
<path d="M28.1215 4.35248C28.4074 4.53759 28.7281 4.66232 29.064 4.71901C29.3999 4.7757 29.7438 4.76316 30.0746 4.68216C30.4055 4.60116 30.7163 4.4534 30.988 4.24796C31.2597 4.04251 31.4865 3.78372 31.6546 3.48745C31.8226 3.19119 31.9284 2.86371 31.9654 2.5251C32.0023 2.18649 31.9697 1.8439 31.8695 1.51836C31.7693 1.19282 31.6036 0.891185 31.3826 0.631977C31.1616 0.372769 30.89 0.161452 30.5844 0.0109947L30.1184 0.957436C30.2951 1.0444 30.4521 1.16655 30.5798 1.31638C30.7075 1.46621 30.8033 1.64056 30.8612 1.82873C30.9191 2.0169 30.938 2.21493 30.9166 2.41065C30.8953 2.60637 30.8342 2.79567 30.737 2.96692C30.6399 3.13816 30.5087 3.28775 30.3517 3.40651C30.1947 3.52526 30.015 3.61066 29.8238 3.65748C29.6325 3.70431 29.4337 3.71155 29.2396 3.67878C29.0455 3.64601 28.8601 3.57392 28.6948 3.46692L28.1215 4.35248Z" fill="#D9D9D9"/>
<defs>
<filter id="filter0_ddd_1_2" x="3.99997" y="9.3862" width="43.0001" height="40.6138" filterUnits="userSpaceOnUse" color-interpolation-filters="sRGB">
<feFlood flood-opacity="0" result="BackgroundImageFix"/>
<feColorMatrix in="SourceAlpha" type="matrix" values="0 0 0 0 0 0 0 0 0 0 0 0 0 0 0 0 0 0 127 0" result="hardAlpha"/>
<feOffset dy="4"/>
<feGaussianBlur stdDeviation="2"/>
<feComposite in2="hardAlpha" operator="out"/>
<feColorMatrix type="matrix" values="0 0 0 0 0 0 0 0 0 0 0 0 0 0 0 0 0 0 0.25 0"/>
<feBlend mode="normal" in2="BackgroundImageFix" result="effect1_dropShadow_1_2"/>
<feColorMatrix in="SourceAlpha" type="matrix" values="0 0 0 0 0 0 0 0 0 0 0 0 0 0 0 0 0 0 127 0" result="hardAlpha"/>
<feOffset dy="4"/>
<feGaussianBlur stdDeviation="2"/>
<feComposite in2="hardAlpha" operator="out"/>
<feColorMatrix type="matrix" values="0 0 0 0 0 0 0 0 0 0 0 0 0 0 0 0 0 0 0.25 0"/>
<feBlend mode="normal" in2="effect1_dropShadow_1_2" result="effect2_dropShadow_1_2"/>
<feColorMatrix in="SourceAlpha" type="matrix" values="0 0 0 0 0 0 0 0 0 0 0 0 0 0 0 0 0 0 127 0" result="hardAlpha"/>
<feOffset dy="4"/>
<feGaussianBlur stdDeviation="2"/>
<feComposite in2="hardAlpha" operator="out"/>
<feColorMatrix type="matrix" values="0 0 0 0 0 0 0 0 0 0 0 0 0 0 0 0 0 0 0.25 0"/>
<feBlend mode="normal" in2="effect2_dropShadow_1_2" result="effect3_dropShadow_1_2"/>
<feBlend mode="normal" in="SourceGraphic" in2="effect3_dropShadow_1_2" result="shape"/>
</filter>
<filter id="filter1_i_1_2" x="9.99997" y="11.3015" width="31.0001" height="32.6985" filterUnits="userSpaceOnUse" color-interpolation-filters="sRGB">
<feFlood flood-opacity="0" result="BackgroundImageFix"/>
<feBlend mode="normal" in="SourceGraphic" in2="BackgroundImageFix" result="shape"/>
<feColorMatrix in="SourceAlpha" type="matrix" values="0 0 0 0 0 0 0 0 0 0 0 0 0 0 0 0 0 0 127 0" result="hardAlpha"/>
<feOffset dy="4"/>
<feGaussianBlur stdDeviation="2"/>
<feComposite in2="hardAlpha" operator="arithmetic" k2="-1" k3="1"/>
<feColorMatrix type="matrix" values="0 0 0 0 0 0 0 0 0 0 0 0 0 0 0 0 0 0 0.25 0"/>
<feBlend mode="normal" in2="shape" result="effect1_innerShadow_1_2"/>
</filter>
<filter id="filter2_i_1_2" x="9.99997" y="11.3015" width="31.0001" height="32.6985" filterUnits="userSpaceOnUse" color-interpolation-filters="sRGB">
<feFlood flood-opacity="0" result="BackgroundImageFix"/>
<feBlend mode="normal" in="SourceGraphic" in2="BackgroundImageFix" result="shape"/>
<feColorMatrix in="SourceAlpha" type="matrix" values="0 0 0 0 0 0 0 0 0 0 0 0 0 0 0 0 0 0 127 0" result="hardAlpha"/>
<feOffset dy="4"/>
<feGaussianBlur stdDeviation="2"/>
<feComposite in2="hardAlpha" operator="arithmetic" k2="-1" k3="1"/>
<feColorMatrix type="matrix" values="0 0 0 0 0 0 0 0 0 0 0 0 0 0 0 0 0 0 0.25 0"/>
<feBlend mode="normal" in2="shape" result="effect1_innerShadow_1_2"/>
</filter>
<radialGradient id="paint0_diamond_1_2" cx="0" cy="0" r="1" gradientUnits="userSpaceOnUse" gradientTransform="translate(2.5 0.500002) rotate(49.5861) scale(66.3268)">
<stop/>
<stop offset="0.333333" stop-color="#030E1E"/>
<stop offset="0.666667" stop-color="#075661"/>
<stop offset="1"/>
</radialGradient>
<linearGradient id="paint1_linear_1_2" x1="25.5" y1="9" x2="25.5" y2="42" gradientUnits="userSpaceOnUse">
<stop stop-color="#600251"/>
<stop offset="0.520833" stop-color="#E61CC5"/>
<stop offset="1" stop-color="#600251"/>
</linearGradient>
<radialGradient id="paint2_angular_1_2" cx="0" cy="0" r="1" gradientUnits="userSpaceOnUse" gradientTransform="translate(25.5 25.5) rotate(90) scale(14.5 15.5)">
<stop stop-color="#3F7337"/>
<stop offset="0.197917" stop-color="#2243B7"/>
<stop offset="0.427083" stop-color="#655C0A"/>
<stop offset="0.671875" stop-color="#1F5101"/>
<stop offset="0.833333" stop-color="#732533"/>
<stop offset="1" stop-color="#4A7337"/>
</radialGradient>
<linearGradient id="paint3_linear_1_2" x1="32.4828" y1="29.7676" x2="34.9257" y2="36.7769" gradientUnits="userSpaceOnUse">
<stop stop-color="#E1958B"/>
<stop offset="0.0001" stop-color="#D9877D"/>
<stop offset="0.28125" stop-color="#E1958B"/>
<stop offset="0.609375" stop-color="#F5B5AD"/>
<stop offset="1" stop-color="#E1958B"/>
</linearGradient>
<linearGradient id="paint4_linear_1_2" x1="31.2001" y1="30.0598" x2="35.8658" y2="35.6973" gradientUnits="userSpaceOnUse">
<stop stop-color="#D06557"/>
<stop offset="1" stop-color="#D06557" stop-opacity="0"/>
</linearGradient>
</defs>
</svg>
