<svg width="50" height="50" viewBox="0 0 50 50" fill="none" xmlns="http://www.w3.org/2000/svg">
<g clip-path="url(#clip0_1_2)">
<rect width="50" height="50" rx="5" fill="url(#paint0_diamond_1_2)" fill-opacity="0.8" style="mix-blend-mode:multiply"/>
<g filter="url(#filter0_dd_1_2)">
<path d="M24.3494 19.3661C25.0997 19.1274 25.9039 19.1154 26.661 19.3317L33.5059 21.2874C35.0231 21.7209 36.1437 23.0058 36.3668 24.5678L37.8601 35.0204C38.2 37.4001 36.3792 39.54 33.9757 39.5853L16.7001 39.9113C14.2359 39.9578 12.3163 37.7862 12.6648 35.3463L14.145 24.9849C14.3621 23.4655 15.4294 22.2043 16.892 21.7389L24.3494 19.3661Z" fill="#040336"/>
<path d="M24.3494 19.3661C25.0997 19.1274 25.9039 19.1154 26.661 19.3317L33.5059 21.2874C35.0231 21.7209 36.1437 23.0058 36.3668 24.5678L37.8601 35.0204C38.2 37.4001 36.3792 39.54 33.9757 39.5853L16.7001 39.9113C14.2359 39.9578 12.3163 37.7862 12.6648 35.3463L14.145 24.9849C14.3621 23.4655 15.4294 22.2043 16.892 21.7389L24.3494 19.3661Z" fill="#040336"/>
</g>
<g filter="url(#filter1_f_1_2)">
<ellipse cx="25.5" cy="23" rx="21.5" ry="22" fill="#EAEDD7" fill-opacity="0.65"/>
</g>
<g filter="url(#filter2_dd_1_2)">
<path d="M24.6278 15.5363C25.3782 15.2976 26.1823 15.2856 26.9395 15.5019L34.232 17.5855C35.5114 17.951 36.5252 18.9288 36.9369 20.194L40.3123 30.5682C41.1485 33.1383 39.2479 35.7808 36.5452 35.8056L12.8955 36.0228C9.94069 36.0499 7.97749 32.974 9.24634 30.3053L14.033 20.238C14.5085 19.2378 15.3774 18.4796 16.4327 18.1438L24.6278 15.5363Z" fill="#12106F"/>
<path d="M24.6278 15.5363C25.3782 15.2976 26.1823 15.2856 26.9395 15.5019L33.7843 17.4576C35.3015 17.8911 36.4221 19.176 36.6453 20.738L38.1385 31.1906C38.4784 33.5703 36.6576 35.7102 34.2541 35.7555L16.9785 36.0815C14.5143 36.128 12.5947 33.9564 12.9432 31.5165L14.4234 21.1551C14.6405 19.6357 15.7078 18.3745 17.1704 17.9091L24.6278 15.5363Z" fill="#12106F"/>
</g>
<g filter="url(#filter3_dd_1_2)">
<path d="M24.404 9.57935C25.1544 9.3406 25.9585 9.32863 26.7157 9.54496L34.0082 11.6285C35.2876 11.9941 36.3014 12.9718 36.7131 14.2371L40.0884 24.6112C40.9247 27.1814 39.0241 29.8238 36.3214 29.8487L12.6717 30.0658C9.71689 30.0929 7.75369 27.017 9.02254 24.3484L13.8092 14.281C14.2847 13.2809 15.1536 12.5226 16.2089 12.1869L24.404 9.57935Z" fill="#5451EC"/>
<path d="M24.404 9.57935C25.1544 9.3406 25.9585 9.32863 26.7157 9.54496L33.5605 11.5006C35.0777 11.9341 36.1983 13.219 36.4215 14.781L37.9147 25.2336C38.2546 27.6133 36.4338 29.7532 34.0303 29.7986L16.7547 30.1245C14.2905 30.171 12.3709 27.9994 12.7194 25.5596L14.1996 15.1981C14.4167 13.6787 15.484 12.4175 16.9466 11.9521L24.404 9.57935Z" fill="#5451EC"/>
</g>
<g filter="url(#filter4_dd_1_2)">
<path d="M24.404 4.57935C25.1544 4.3406 25.9585 4.32863 26.7157 4.54496L34.0082 6.62854C35.2876 6.99406 36.3014 7.9718 36.7131 9.23705L40.0884 19.6112C40.9247 22.1814 39.0241 24.8238 36.3214 24.8487L12.6717 25.0658C9.71689 25.0929 7.75369 22.017 9.02254 19.3484L13.8092 9.28098C14.2847 8.28087 15.1536 7.52264 16.2089 7.18687L24.404 4.57935Z" fill="#807ED9"/>
<path d="M24.404 4.57935C25.1544 4.3406 25.9585 4.32863 26.7157 4.54496L33.5605 6.50062C35.0777 6.9341 36.1983 8.219 36.4215 9.78103L37.9147 20.2336C38.2546 22.6133 36.4338 24.7532 34.0303 24.7986L16.7547 25.1245C14.2905 25.171 12.3709 22.9994 12.7194 20.5596L14.1996 10.1981C14.4167 8.67873 15.484 7.4175 16.9466 6.95213L24.404 4.57935Z" fill="#807ED9"/>
</g>
</g>
<defs>
<filter id="filter0_dd_1_2" x="8.62382" y="19.1778" width="33.2772" height="28.7342" filterUnits="userSpaceOnUse" color-interpolation-filters="sRGB">
<feFlood flood-opacity="0" result="BackgroundImageFix"/>
<feColorMatrix in="SourceAlpha" type="matrix" values="0 0 0 0 0 0 0 0 0 0 0 0 0 0 0 0 0 0 127 0" result="hardAlpha"/>
<feOffset dy="4"/>
<feGaussianBlur stdDeviation="2"/>
<feComposite in2="hardAlpha" operator="out"/>
<feColorMatrix type="matrix" values="0 0 0 0 0 0 0 0 0 0 0 0 0 0 0 0 0 0 0.25 0"/>
<feBlend mode="normal" in2="BackgroundImageFix" result="effect1_dropShadow_1_2"/>
<feColorMatrix in="SourceAlpha" type="matrix" values="0 0 0 0 0 0 0 0 0 0 0 0 0 0 0 0 0 0 127 0" result="hardAlpha"/>
<feOffset dy="4"/>
<feGaussianBlur stdDeviation="2"/>
<feComposite in2="hardAlpha" operator="out"/>
<feColorMatrix type="matrix" values="0 0 0 0 0 0 0 0 0 0 0 0 0 0 0 0 0 0 0.25 0"/>
<feBlend mode="normal" in2="effect1_dropShadow_1_2" result="effect2_dropShadow_1_2"/>
<feBlend mode="normal" in="SourceGraphic" in2="effect2_dropShadow_1_2" result="shape"/>
</filter>
<filter id="filter1_f_1_2" x="0" y="-3" width="51" height="52" filterUnits="userSpaceOnUse" color-interpolation-filters="sRGB">
<feFlood flood-opacity="0" result="BackgroundImageFix"/>
<feBlend mode="normal" in="SourceGraphic" in2="BackgroundImageFix" result="shape"/>
<feGaussianBlur stdDeviation="2" result="effect1_foregroundBlur_1_2"/>
</filter>
<filter id="filter2_dd_1_2" x="4.85379" y="15.348" width="39.6576" height="28.7342" filterUnits="userSpaceOnUse" color-interpolation-filters="sRGB">
<feFlood flood-opacity="0" result="BackgroundImageFix"/>
<feColorMatrix in="SourceAlpha" type="matrix" values="0 0 0 0 0 0 0 0 0 0 0 0 0 0 0 0 0 0 127 0" result="hardAlpha"/>
<feOffset dy="4"/>
<feGaussianBlur stdDeviation="2"/>
<feComposite in2="hardAlpha" operator="out"/>
<feColorMatrix type="matrix" values="0 0 0 0 0 0 0 0 0 0 0 0 0 0 0 0 0 0 0.25 0"/>
<feBlend mode="normal" in2="BackgroundImageFix" result="effect1_dropShadow_1_2"/>
<feColorMatrix in="SourceAlpha" type="matrix" values="0 0 0 0 0 0 0 0 0 0 0 0 0 0 0 0 0 0 127 0" result="hardAlpha"/>
<feOffset dy="4"/>
<feGaussianBlur stdDeviation="2"/>
<feComposite in2="hardAlpha" operator="out"/>
<feColorMatrix type="matrix" values="0 0 0 0 0 0 0 0 0 0 0 0 0 0 0 0 0 0 0.25 0"/>
<feBlend mode="normal" in2="effect1_dropShadow_1_2" result="effect2_dropShadow_1_2"/>
<feBlend mode="normal" in="SourceGraphic" in2="effect2_dropShadow_1_2" result="shape"/>
</filter>
<filter id="filter3_dd_1_2" x="4.62999" y="9.39105" width="39.6576" height="28.7342" filterUnits="userSpaceOnUse" color-interpolation-filters="sRGB">
<feFlood flood-opacity="0" result="BackgroundImageFix"/>
<feColorMatrix in="SourceAlpha" type="matrix" values="0 0 0 0 0 0 0 0 0 0 0 0 0 0 0 0 0 0 127 0" result="hardAlpha"/>
<feOffset dy="4"/>
<feGaussianBlur stdDeviation="2"/>
<feComposite in2="hardAlpha" operator="out"/>
<feColorMatrix type="matrix" values="0 0 0 0 0 0 0 0 0 0 0 0 0 0 0 0 0 0 0.25 0"/>
<feBlend mode="normal" in2="BackgroundImageFix" result="effect1_dropShadow_1_2"/>
<feColorMatrix in="SourceAlpha" type="matrix" values="0 0 0 0 0 0 0 0 0 0 0 0 0 0 0 0 0 0 127 0" result="hardAlpha"/>
<feOffset dy="4"/>
<feGaussianBlur stdDeviation="2"/>
<feComposite in2="hardAlpha" operator="out"/>
<feColorMatrix type="matrix" values="0 0 0 0 0 0 0 0 0 0 0 0 0 0 0 0 0 0 0.25 0"/>
<feBlend mode="normal" in2="effect1_dropShadow_1_2" result="effect2_dropShadow_1_2"/>
<feBlend mode="normal" in="SourceGraphic" in2="effect2_dropShadow_1_2" result="shape"/>
</filter>
<filter id="filter4_dd_1_2" x="4.62999" y="4.39105" width="39.6576" height="28.7342" filterUnits="userSpaceOnUse" color-interpolation-filters="sRGB">
<feFlood flood-opacity="0" result="BackgroundImageFix"/>
<feColorMatrix in="SourceAlpha" type="matrix" values="0 0 0 0 0 0 0 0 0 0 0 0 0 0 0 0 0 0 127 0" result="hardAlpha"/>
<feOffset dy="4"/>
<feGaussianBlur stdDeviation="2"/>
<feComposite in2="hardAlpha" operator="out"/>
<feColorMatrix type="matrix" values="0 0 0 0 0 0 0 0 0 0 0 0 0 0 0 0 0 0 0.25 0"/>
<feBlend mode="normal" in2="BackgroundImageFix" result="effect1_dropShadow_1_2"/>
<feColorMatrix in="SourceAlpha" type="matrix" values="0 0 0 0 0 0 0 0 0 0 0 0 0 0 0 0 0 0 127 0" result="hardAlpha"/>
<feOffset dy="4"/>
<feGaussianBlur stdDeviation="2"/>
<feComposite in2="hardAlpha" operator="out"/>
<feColorMatrix type="matrix" values="0 0 0 0 0 0 0 0 0 0 0 0 0 0 0 0 0 0 0.25 0"/>
<feBlend mode="normal" in2="effect1_dropShadow_1_2" result="effect2_dropShadow_1_2"/>
<feBlend mode="normal" in="SourceGraphic" in2="effect2_dropShadow_1_2" result="shape"/>
</filter>
<radialGradient id="paint0_diamond_1_2" cx="0" cy="0" r="1" gradientUnits="userSpaceOnUse" gradientTransform="translate(2 3.03745e-06) rotate(46.232) scale(65.7761)">
<stop/>
<stop offset="0.526042" stop-color="#513896"/>
<stop offset="1"/>
</radialGradient>
<clipPath id="clip0_1_2">
<rect width="50" height="50" rx="5" fill="white"/>
</clipPath>
</defs>
</svg>
