<svg width="50" height="50" viewBox="0 0 50 50" fill="none" xmlns="http://www.w3.org/2000/svg">
<g clip-path="url(#clip0_1_2)">
<rect width="50" height="50" rx="5" fill="url(#paint0_diamond_1_2)" fill-opacity="0.8" style="mix-blend-mode:multiply"/>
<g filter="url(#filter0_ddd_1_2)">
<path d="M12.1828 44.5L12.1828 36.9958L11 29.9958L9 21.9958L5.49999 13.8943L26 10.3943L35 13.8943L45 29.9958L35 31.9958L26 35L19 38.9958L12.1828 44.5Z" fill="#000D83"/>
<path d="M12.1828 44.5L12.1828 36.9958L11 29.9958L9 21.9958L5.49999 13.8943L26 10.3943L35 13.8943L45 29.9958L35 31.9958L26 35L19 38.9958L12.1828 44.5Z" fill="#000D83"/>
</g>
<path d="M12.5914 42.7527L12.5914 35.539L11.4544 28.8101L9.53186 21.1199L6.16739 13.3321L25.8736 9.96763L34.525 13.3321L44.1378 28.8101L34.525 30.7326L25.8736 33.6205L19.1446 37.4616L12.5914 42.7527Z" fill="#041DF9"/>
<path d="M12.5914 42.7527L12.5914 35.539L11.4544 28.8101L9.53186 21.1199L6.16739 13.3321L25.8736 9.96763L34.525 13.3321L44.1378 28.8101L34.525 30.7326L25.8736 33.6205L19.1446 37.4616L12.5914 42.7527Z" fill="#041DF9"/>
<path d="M14.844 38.4648L14.844 32.7879L13.9492 27.4924L12.4362 21.4404L9.78844 15.3116L25.2967 12.1066L33.5 15.3116L39.6702 27.4924L32.1052 29.0054L24.5 31.6066L20.0012 34.3009L14.844 38.4648Z" fill="#CACACE"/>
<path d="M14.844 38.4648L14.844 32.7879L13.9492 27.4924L12.4362 21.4404L9.78844 15.3116L25.2967 12.1066L33.5 15.3116L39.6702 27.4924L32.1052 29.0054L24.5 31.6066L20.0012 34.3009L14.844 38.4648Z" fill="#CACACE"/>
<g filter="url(#filter1_f_1_2)">
<ellipse cx="23.9243" cy="22.2796" rx="7.69517" ry="8.61958" transform="rotate(29.2277 23.9243 22.2796)" fill="#9E1BA0" fill-opacity="0.38"/>
</g>
<g filter="url(#filter2_f_1_2)">
<ellipse cx="24" cy="21.7392" rx="5.18829" ry="7.11116" transform="rotate(29.2277 24 21.7392)" fill="#FF22E9"/>
</g>
<g filter="url(#filter3_i_1_2)">
<ellipse cx="24.0057" cy="21.653" rx="4.54346" ry="6.22734" transform="rotate(29.2277 24.0057 21.653)" fill="#B40CA3"/>
</g>
<g filter="url(#filter4_i_1_2)">
<ellipse cx="23.5454" cy="22.0578" rx="3.59639" ry="4.92927" transform="rotate(29.2277 23.5454 22.0578)" fill="#FF00E5"/>
</g>
<path d="M30.3083 9.09589L32.3083 9.59589V12.5959L27.3083 10.5959L30.3083 9.09589Z" fill="#9A9A9A"/>
<path d="M31 8C31 9.10457 32 9 32 10C30.8954 10 30 9.10457 30 8C30 6.89543 30.8954 6 32 6C32.5 6.5 31 6.89543 31 8Z" fill="#D9D9D9"/>
<path d="M33.1334 7.99782C33.0914 6.91802 31.9979 7.06293 31.9599 6.08535C33.1722 6.03821 34.1889 6.87534 34.2309 7.95514C34.2729 9.03493 33.3242 9.9485 32.112 9.99564C31.5442 9.52819 33.1754 9.07761 33.1334 7.99782Z" fill="#D9D9D9"/>
<path d="M31.594 7.14353C31.3673 6.08697 30.3148 6.41744 30.1096 5.46091C31.2957 5.20636 32.4411 5.85652 32.6679 6.91308C32.8946 7.96963 32.1168 9.03249 30.9307 9.28704C30.2911 8.924 31.8207 8.20008 31.594 7.14353Z" fill="#D9D9D9"/>
<path d="M28.9648 5.30075C29.5345 6.219 30.4138 5.55307 30.9296 6.38439C29.8987 7.02394 28.6012 6.79801 28.0315 5.87975C27.4618 4.9615 27.8357 3.69864 28.8666 3.05909C29.5911 3.18525 28.3951 4.38249 28.9648 5.30075Z" fill="#D9D9D9"/>
<path d="M29.2505 4.14632C28.4698 3.39918 27.7843 4.26342 27.0775 3.58701C27.9163 2.71053 29.2291 2.60568 30.0098 3.35282C30.7906 4.09995 30.7435 5.41615 29.9047 6.29263C29.1716 6.35118 30.0312 4.89346 29.2505 4.14632Z" fill="#D9D9D9"/>
<path d="M26.9648 3.30075C27.5345 4.219 28.4138 3.55307 28.9296 4.38439C27.8987 5.02394 26.6012 4.79801 26.0315 3.87975C25.4618 2.9615 25.8357 1.69864 26.8666 1.05909C27.5911 1.18525 26.3951 2.38249 26.9648 3.30075Z" fill="#D9D9D9"/>
<path d="M27.2505 2.14632C26.4698 1.39918 25.7843 2.26342 25.0775 1.58701C25.9163 0.710535 27.2291 0.605682 28.0098 1.35282C28.7906 2.09995 28.7435 3.41615 27.9047 4.29263C27.1716 4.35118 28.0312 2.89346 27.2505 2.14632Z" fill="#D9D9D9"/>
<path d="M25.7582 1.31621C26.168 2.31612 27.1455 1.80499 27.5164 2.71024C26.3939 3.17026 25.1517 2.73259 24.7419 1.73268C24.3322 0.732768 24.91 -0.450739 26.0326 -0.910759C26.7262 -0.666369 25.3485 0.316298 25.7582 1.31621Z" fill="#D9D9D9"/>
<path d="M26.2311 0.22501C25.5849 -0.641087 24.7658 0.0977107 24.1808 -0.686393C25.1531 -1.41188 26.4652 -1.29789 27.1114 -0.431795C27.7576 0.434303 27.4933 1.72454 26.5209 2.45002C25.7882 2.38637 26.8773 1.09111 26.2311 0.22501Z" fill="#D9D9D9"/>
<path d="M33.0426 8.84151C34.0996 8.72031 33.8827 7.64068 34.8396 7.53096C34.9687 8.73615 34.2164 9.81141 33.1594 9.93261C32.1024 10.0538 31.1409 9.17506 31.0119 7.96987C31.432 7.36945 31.9856 8.96271 33.0426 8.84151Z" fill="#D9D9D9"/>
<path d="M35.1123 6.4079C34.1559 6.88393 34.7186 7.82455 33.8528 8.25552C33.3313 7.16676 33.6838 5.89824 34.6401 5.42221C35.5965 4.94617 36.7946 5.44289 37.3161 6.53165C37.1193 7.23998 36.0687 5.93186 35.1123 6.4079Z" fill="#D9D9D9"/>
<path d="M36.2132 6.80615C37.0235 6.10326 36.2471 5.33595 36.9806 4.69961C37.7535 5.62065 37.7232 6.93711 36.9129 7.64C36.1026 8.34289 34.8193 8.16604 34.0464 7.24499C34.0633 6.5099 35.4029 7.50904 36.2132 6.80615Z" fill="#D9D9D9"/>
<path d="M38.2038 5.84762C37.2475 6.32366 37.8102 7.26428 36.9443 7.69525C36.4228 6.60649 36.7753 5.33797 37.7317 4.86194C38.688 4.3859 39.8861 4.88262 40.4077 5.97138C40.2108 6.67971 39.1602 5.37159 38.2038 5.84762Z" fill="#D9D9D9"/>
<path d="M39.2382 6.19162C40.0485 5.48873 39.2721 4.72142 40.0056 4.08508C40.7785 5.00612 40.7482 6.32257 39.9379 7.02546C39.1276 7.72835 37.8443 7.5515 37.0714 6.63046C37.0883 5.89536 38.4279 6.89451 39.2382 6.19162Z" fill="#D9D9D9"/>
<path d="M40.1517 4.61147C39.1316 4.92034 39.5329 5.9433 38.6094 6.22293C38.2728 5.06071 38.8269 3.86814 39.847 3.55927C40.8671 3.25039 41.9669 3.94217 42.3035 5.1044C41.994 5.77031 41.1718 4.30259 40.1517 4.61147Z" fill="#D9D9D9"/>
<path d="M41.2636 5.04566C42.1749 4.48539 41.5319 3.59958 42.3569 3.09235C42.9718 4.12937 42.7316 5.42424 41.8203 5.98451C40.909 6.54477 39.6718 6.15829 39.0569 5.12127C39.191 4.39823 40.3523 5.60593 41.2636 5.04566Z" fill="#D9D9D9"/>
<path d="M47.6412 0.342625C48.64 -0.036309 48.1733 -1.02806 49.0775 -1.37112C49.4886 -0.236038 49.0122 0.991312 48.0134 1.37025C47.0145 1.74918 45.8716 1.1362 45.4605 0.00112359C45.7265 -0.684217 46.6424 0.721558 47.6412 0.342625Z" fill="#D9D9D9"/>
<path d="M46.5852 -0.162752C45.7092 0.456397 46.4058 1.29685 45.6128 1.85739C44.935 0.864301 45.0956 -0.442674 45.9715 -1.06182C46.8474 -1.68097 48.107 -1.37784 48.7848 -0.384749C48.6951 0.345054 47.4611 -0.781901 46.5852 -0.162752Z" fill="#D9D9D9"/>
<path d="M45.3144 1.91196C46.3132 1.53303 45.8465 0.541279 46.7507 0.198219C47.1618 1.3333 46.6854 2.56065 45.6866 2.93958C44.6877 3.31852 43.5448 2.70554 43.1337 1.57046C43.3997 0.885119 44.3155 2.29089 45.3144 1.91196Z" fill="#D9D9D9"/>
<path d="M44.2583 1.40658C43.3824 2.02573 44.079 2.86619 43.286 3.42672C42.6082 2.43364 42.7688 1.12666 43.6447 0.507513C44.5206 -0.111636 45.7802 0.1915 46.458 1.18459C46.3683 1.91439 45.1343 0.787435 44.2583 1.40658Z" fill="#D9D9D9"/>
<path d="M43.1606 2.70675C44.2063 2.50046 43.9083 1.44278 44.855 1.25603C45.0748 2.44588 44.4052 3.57767 43.3595 3.78396C42.3139 3.99024 41.288 3.1929 41.0683 2.00305C41.4422 1.37107 42.1149 2.91303 43.1606 2.70675Z" fill="#D9D9D9"/>
<path d="M42.2029 2.03024C41.2391 2.49437 41.7881 3.4413 40.9155 3.86148C40.4099 2.76701 40.7813 1.50351 41.7451 1.03938C42.7089 0.575254 43.9001 1.08625 44.4057 2.18073C44.1983 2.88626 43.1667 1.56612 42.2029 2.03024Z" fill="#D9D9D9"/>
<path d="M33.1334 7.99782C33.0914 6.91802 31.9979 7.06293 31.9599 6.08535C33.1722 6.03821 34.1889 6.87534 34.2309 7.95514C34.2729 9.03493 33.3242 9.9485 32.112 9.99564C31.5442 9.52819 33.1754 9.07761 33.1334 7.99782Z" fill="#D9D9D9"/>
<path d="M33.1334 7.99782C33.0914 6.91802 31.9979 7.06293 31.9599 6.08535C33.1722 6.03821 34.1889 6.87534 34.2309 7.95514C34.2729 9.03493 33.3242 9.9485 32.112 9.99564C31.5442 9.52819 33.1754 9.07761 33.1334 7.99782Z" fill="#D9D9D9"/>
</g>
<defs>
<filter id="filter0_ddd_1_2" x="1.49999" y="10.3943" width="47.5" height="42.1057" filterUnits="userSpaceOnUse" color-interpolation-filters="sRGB">
<feFlood flood-opacity="0" result="BackgroundImageFix"/>
<feColorMatrix in="SourceAlpha" type="matrix" values="0 0 0 0 0 0 0 0 0 0 0 0 0 0 0 0 0 0 127 0" result="hardAlpha"/>
<feOffset dy="4"/>
<feGaussianBlur stdDeviation="2"/>
<feComposite in2="hardAlpha" operator="out"/>
<feColorMatrix type="matrix" values="0 0 0 0 0 0 0 0 0 0 0 0 0 0 0 0 0 0 0.25 0"/>
<feBlend mode="normal" in2="BackgroundImageFix" result="effect1_dropShadow_1_2"/>
<feColorMatrix in="SourceAlpha" type="matrix" values="0 0 0 0 0 0 0 0 0 0 0 0 0 0 0 0 0 0 127 0" result="hardAlpha"/>
<feOffset dy="4"/>
<feGaussianBlur stdDeviation="2"/>
<feComposite in2="hardAlpha" operator="out"/>
<feColorMatrix type="matrix" values="0 0 0 0 0 0 0 0 0 0 0 0 0 0 0 0 0 0 0.25 0"/>
<feBlend mode="normal" in2="effect1_dropShadow_1_2" result="effect2_dropShadow_1_2"/>
<feColorMatrix in="SourceAlpha" type="matrix" values="0 0 0 0 0 0 0 0 0 0 0 0 0 0 0 0 0 0 127 0" result="hardAlpha"/>
<feOffset dy="4"/>
<feGaussianBlur stdDeviation="2"/>
<feComposite in2="hardAlpha" operator="out"/>
<feColorMatrix type="matrix" values="0 0 0 0 0 0 0 0 0 0 0 0 0 0 0 0 0 0 0.25 0"/>
<feBlend mode="normal" in2="effect2_dropShadow_1_2" result="effect3_dropShadow_1_2"/>
<feBlend mode="normal" in="SourceGraphic" in2="effect3_dropShadow_1_2" result="shape"/>
</filter>
<filter id="filter1_f_1_2" x="11.9978" y="9.86935" width="23.8528" height="24.8205" filterUnits="userSpaceOnUse" color-interpolation-filters="sRGB">
<feFlood flood-opacity="0" result="BackgroundImageFix"/>
<feBlend mode="normal" in="SourceGraphic" in2="BackgroundImageFix" result="shape"/>
<feGaussianBlur stdDeviation="2" result="effect1_foregroundBlur_1_2"/>
</filter>
<filter id="filter2_f_1_2" x="14.2938" y="11.0344" width="19.4123" height="21.4095" filterUnits="userSpaceOnUse" color-interpolation-filters="sRGB">
<feFlood flood-opacity="0" result="BackgroundImageFix"/>
<feBlend mode="normal" in="SourceGraphic" in2="BackgroundImageFix" result="shape"/>
<feGaussianBlur stdDeviation="2" result="effect1_foregroundBlur_1_2"/>
</filter>
<filter id="filter3_i_1_2" x="19.0087" y="15.7816" width="9.99395" height="15.7429" filterUnits="userSpaceOnUse" color-interpolation-filters="sRGB">
<feFlood flood-opacity="0" result="BackgroundImageFix"/>
<feBlend mode="normal" in="SourceGraphic" in2="BackgroundImageFix" result="shape"/>
<feColorMatrix in="SourceAlpha" type="matrix" values="0 0 0 0 0 0 0 0 0 0 0 0 0 0 0 0 0 0 127 0" result="hardAlpha"/>
<feOffset dy="4"/>
<feGaussianBlur stdDeviation="2"/>
<feComposite in2="hardAlpha" operator="arithmetic" k2="-1" k3="1"/>
<feColorMatrix type="matrix" values="0 0 0 0 0 0 0 0 0 0 0 0 0 0 0 0 0 0 0.25 0"/>
<feBlend mode="normal" in2="shape" result="effect1_innerShadow_1_2"/>
</filter>
<filter id="filter4_i_1_2" x="19.59" y="17.4102" width="7.91073" height="13.2951" filterUnits="userSpaceOnUse" color-interpolation-filters="sRGB">
<feFlood flood-opacity="0" result="BackgroundImageFix"/>
<feBlend mode="normal" in="SourceGraphic" in2="BackgroundImageFix" result="shape"/>
<feColorMatrix in="SourceAlpha" type="matrix" values="0 0 0 0 0 0 0 0 0 0 0 0 0 0 0 0 0 0 127 0" result="hardAlpha"/>
<feOffset dy="4"/>
<feGaussianBlur stdDeviation="2"/>
<feComposite in2="hardAlpha" operator="arithmetic" k2="-1" k3="1"/>
<feColorMatrix type="matrix" values="0 0 0 0 0 0 0 0 0 0 0 0 0 0 0 0 0 0 0.25 0"/>
<feBlend mode="normal" in2="shape" result="effect1_innerShadow_1_2"/>
</filter>
<radialGradient id="paint0_diamond_1_2" cx="0" cy="0" r="1" gradientUnits="userSpaceOnUse" gradientTransform="translate(7.5 4.5) rotate(50.7442) scale(60.0521)">
<stop/>
<stop offset="0.328125" stop-color="#6A086C"/>
<stop offset="0.697917" stop-color="#620258"/>
<stop offset="1"/>
</radialGradient>
<clipPath id="clip0_1_2">
<rect width="50" height="50" rx="5" fill="white"/>
</clipPath>
</defs>
</svg>
